Coordinates
version=1
nRows=4
nColumns=107
inDegrees=yes

Units are S.I. units (second, meters, Newtons, ...)
If the header above contains a line with 'inDegrees', this indicates whether rotational values are in degrees (yes) or radians (no).

endheader
time	sternoclavicular_r2	sternoclavicular_r3	unrotscap_r3	unrotscap_r2	acromioclavicular_r2	acromioclavicular_r3	acromioclavicular_r1	unrothum_r1	unrothum_r3	unrothum_r2	elv_angle	shoulder_elv	shoulder1_r2	shoulder_rot	elbow_flexion	pro_sup	deviation	flexion	proximal_distal_r1	proximal_distal_r3	cmc_flexion	cmc_abduction	mp_flexion	ip_flexion	mcp2_flexion	mcp2_abduction	pm2_flexion	md2_flexion	mcp3_flexion	mcp3_abduction	pm3_flexion	md3_flexion	mcp4_flexion	mcp4_abduction	pm4_flexion	md4_flexion	mcp5_flexion	mcp5_abduction	pm5_flexion	md5_flexion	bicpt_tx	bicpt_ty	bicpt_tz	bicpt2_tx	bicpt2_ty	bicpt2_tz	ptpt_tx	ptpt_ty	ptpt_tz	FCUpt_tx	FCUpt_ty	FCUpt_tz	EDCpt_tx	EDCpt_ty	EDCpt_tz	APLpt_tx	APLpt_ty	APLpt_tz	FPLpt_tx	FPLpt_ty	FPLpt_tz	FPLpt2_tx	FPLpt2_ty	FPLpt2_tz	PEC1pt2_tx	PEC1pt2_ty	PEC1pt2_tz	PEC1pt3_tx	PEC1pt3_ty	PEC1pt3_tz	PEC2pt2_tx	PEC2pt2_ty	PEC2pt2_tz	PEC2pt3_tx	PEC2pt3_ty	PEC2pt3_tz	PEC3pt2_tx	PEC3pt2_ty	PEC3pt2_tz	PEC3pt3_tx	PEC3pt3_ty	PEC3pt3_tz	DELT2pt2a_tx	DELT2pt2a_ty	DELT2pt2a_tz	DELT2pt2_tx	DELT2pt2_ty	DELT2pt2_tz	LAT1pt2_tx	LAT1pt2_ty	LAT1pt2_tz	LAT1pt3_tx	LAT1pt3_ty	LAT1pt3_tz	LAT2pt2_tx	LAT2pt2_ty	LAT2pt2_tz	LAT2pt3_tx	LAT2pt3_ty	LAT2pt3_tz	LAT3pt2_tx	LAT3pt2_ty	LAT3pt2_tz	LAT3pt3_tx	LAT3pt3_ty	LAT3pt3_tz
      0.53333333	     -0.31442563	      0.13317586	     -0.13317586	      0.31442563	     -0.06366479	      0.51451648	      0.23127161	     -0.23127161	     -0.51451648	      0.06366479	    100.84839026	     74.44306336	     -1.76013646	    -35.15440024	     31.06162469	     77.85358032	      0.31672141	     -0.77557512	      0.34772948	     -0.38778756	     41.39833736	    -21.83847597	      3.06779121	      4.49296660	     79.80326699	     13.36500822	     76.99666220	     86.69879700	     88.02166072	      1.97278792	     79.48820933	     57.53414128	     85.20906597	    -13.42836812	     91.00454466	     42.09730758	     93.44417779	    -14.29440285	     88.18523511	      5.44144045	      0.00092742	     -0.03116014	     -0.00487344	      0.01500611	     -0.01863804	     -0.00242459	      0.00179750	     -0.06861966	     -0.00632152	      0.01181241	     -0.18250419	     -0.00011560	     -0.00934241	      0.00314120	     -0.00051362	      0.00028981	      0.00011593	      0.00057963	      0.00037096	      0.00111288	      0.00062600	     -0.00000845	     -0.00008284	     -0.00009941	      0.00244008	      0.00856096	      0.00595545	     -0.00798196	      0.01927250	     -0.01827992	      0.00244008	      0.00856096	      0.00595545	      0.00053764	      0.01786635	     -0.00938811	      0.00388214	      0.00476064	      0.01580454	      0.00000000	      0.00740907	      0.00000000	     -0.00698938	     -0.03230005	     -0.00610696	      0.02098544	     -0.00093657	     -0.01016169	     -0.00086850	      0.01455777	     -0.00595545	      0.00239872	      0.02100950	     -0.01737006	     -0.00583138	      0.01261397	     -0.00533509	     -0.01215904	      0.02663410	     -0.02981861	     -0.02282923	      0.01410284	     -0.00715481	     -0.01513677	      0.03076983	     -0.03726292
      0.56666667	     -0.31466907	      0.13327897	     -0.13327897	      0.31466907	     -0.06371409	      0.51491484	      0.23145068	     -0.23145068	     -0.51491484	      0.06371409	    100.85997654	     74.50070038	     -1.76033867	    -35.16665956	     31.08423106	     77.84953052	      0.31679588	     -0.77561689	      0.34779155	     -0.38780845	     41.39724619	    -21.84025836	      3.06710284	      4.49275392	     79.79993506	     13.36540524	     76.99635064	     86.69896109	     88.01880432	      1.97340576	     79.48824340	     57.53421413	     85.20719171	    -13.42813758	     91.00429521	     42.09724514	     93.44208129	    -14.29444362	     88.18457757	      5.44130383	      0.00092817	     -0.03116273	     -0.00487386	      0.01500642	     -0.01864418	     -0.00242522	      0.00179780	     -0.06861947	     -0.00632120	      0.01181196	     -0.18250431	     -0.00011568	     -0.00934192	      0.00314100	     -0.00051351	      0.00028977	      0.00011591	      0.00057954	      0.00037090	      0.00111271	      0.00062590	     -0.00000845	     -0.00008286	     -0.00009943	      0.00244197	      0.00856759	      0.00596006	     -0.00798814	      0.01928742	     -0.01829408	      0.00244197	      0.00856759	      0.00596006	      0.00053806	      0.01788018	     -0.00939537	      0.00388435	      0.00476433	      0.01581011	      0.00000000	      0.00742062	      0.00000000	     -0.00699479	     -0.03232505	     -0.00611655	      0.02098986	     -0.00093701	     -0.01016849	     -0.00086918	      0.01456904	     -0.00596006	      0.00240058	      0.02102577	     -0.01738351	     -0.00583589	      0.01262374	     -0.00533922	     -0.01216846	      0.02665472	     -0.02984169	     -0.02284690	      0.01411376	     -0.00716035	     -0.01514849	      0.03079365	     -0.03729177
      0.60000000	     -0.31223357	      0.13224740	     -0.13224740	      0.31223357	     -0.06322095	      0.51092945	      0.22965927	     -0.22965927	     -0.51092945	      0.06322095	    101.05696547	     73.92407326	     -1.76377678	    -36.89998813	     32.02073654	     79.98714542	      0.34338522	     -0.69671800	      0.36950917	     -0.34835900	     40.96280921	    -22.16568310	      2.96717999	      4.53299045	     77.54884888	     13.49799087	     76.74742854	     85.58837386	     85.98356213	      2.65834433	     80.11984954	     56.93006622	     83.33139153	    -13.28029171	     90.90943510	     42.56934430	     90.83665604	    -14.28926875	     87.90591798	      5.48520562	      0.00095915	     -0.03127007	     -0.00489115	      0.01482011	     -0.01889859	     -0.00208040	      0.00163985	     -0.06872160	     -0.00649339	      0.01205284	     -0.18243622	     -0.00006821	     -0.00959844	      0.00325363	     -0.00057394	      0.00030635	      0.00012254	      0.00061269	      0.00039212	      0.00117637	      0.00066171	     -0.00000915	     -0.00009188	     -0.00011025	      0.00242307	      0.00850128	      0.00591393	     -0.00792631	      0.01913814	     -0.01815248	      0.00242307	      0.00850128	      0.00591393	      0.00053390	      0.01774179	     -0.00932265	      0.00386211	      0.00472745	      0.01575402	      0.00000000	      0.00730547	      0.00000000	     -0.00694065	     -0.03207486	     -0.00602090	      0.02161844	     -0.00099880	     -0.01112803	     -0.00086245	      0.01445628	     -0.00591393	      0.00238200	      0.02086303	     -0.01724896	     -0.00579072	      0.01252603	     -0.00529790	     -0.01207428	      0.02644841	     -0.02961072	     -0.02267007	      0.01400452	     -0.00710493	     -0.01503124	      0.03055531	     -0.03700314
      0.63333333	     -0.31238357	      0.13231094	     -0.13231094	      0.31238357	     -0.06325132	      0.51117491	      0.22976960	     -0.22976960	     -0.51117491	      0.06325132	    101.06493706	     73.95958718	     -1.76391591	    -36.90643539	     32.03401355	     79.98491201	      0.34341901	     -0.69675178	      0.36953600	     -0.34837589	     40.96185849	    -22.16683014	      2.96626324	      4.53267105	     77.54664547	     13.49818549	     76.74720853	     85.58858058	     85.98151153	      2.65873602	     80.11971869	     56.93016644	     83.33033589	    -13.28011926	     90.90945841	     42.56933207	     90.83552973	    -14.28923727	     87.90592299	      5.48513702	      0.00095959	     -0.03127159	     -0.00489140	      0.01482029	     -0.01890220	     -0.00208075	      0.00164002	     -0.06872149	     -0.00649321	      0.01205259	     -0.18243629	     -0.00006825	     -0.00959817	      0.00325351	     -0.00057388	      0.00030632	      0.00012253	      0.00061265	      0.00039209	      0.00117628	      0.00066166	     -0.00000915	     -0.00009189	     -0.00011027	      0.00242423	      0.00850536	      0.00591677	     -0.00793012	      0.01914733	     -0.01816120	      0.00242423	      0.00850536	      0.00591677	      0.00053415	      0.01775032	     -0.00932713	      0.00386349	      0.00472972	      0.01575750	      0.00000000	      0.00731254	      0.00000000	     -0.00694399	     -0.03209027	     -0.00602677	      0.02162063	     -0.00099903	     -0.01113170	     -0.00086286	      0.01446322	     -0.00591677	      0.00238314	      0.02087306	     -0.01725725	     -0.00579351	      0.01253205	     -0.00530044	     -0.01208008	      0.02646112	     -0.02962495	     -0.02268096	      0.01401124	     -0.00710834	     -0.01503846	      0.03056999	     -0.03702091
